<?xml version="1.0" standalone="no"?>
<!DOCTYPE svg PUBLIC "-//W3C//DTD SVG 20010904//EN"
 "http://www.w3.org/TR/2001/REC-SVG-20010904/DTD/svg10.dtd">
<svg version="1.0" xmlns="http://www.w3.org/2000/svg"
 width="335.000000pt" height="396.000000pt" viewBox="0 0 335.000000 396.000000"
 preserveAspectRatio="xMidYMid meet">

<g transform="translate(0.000000,396.000000) scale(0.100000,-0.100000)"
fill="#000000" stroke="none">
<path d="M1222 3945 c-7 -8 -25 -15 -40 -15 -48 0 -106 -21 -152 -55 -47 -35
-165 -82 -258 -105 -41 -9 -59 -20 -80 -48 -15 -19 -41 -52 -59 -72 -33 -38
-73 -119 -73 -148 0 -9 -7 -30 -16 -47 -8 -16 -13 -39 -10 -51 3 -12 -3 -43
-15 -69 -20 -44 -20 -54 -11 -263 9 -191 14 -233 43 -350 17 -73 34 -130 37
-127 3 3 5 38 4 77 -1 70 0 71 9 28 11 -54 8 -127 -6 -120 -5 3 -12 -8 -15
-25 -4 -25 -12 -32 -48 -44 -50 -15 -82 -57 -82 -106 0 -36 72 -179 119 -236
30 -36 38 -40 65 -34 74 15 79 13 104 -40 37 -79 70 -121 128 -165 30 -22 60
-53 68 -68 7 -15 26 -91 42 -169 l28 -143 -21 -22 c-12 -13 -51 -73 -87 -135
l-66 -112 -136 -91 c-151 -101 -185 -120 -329 -179 -168 -69 -260 -158 -309
-296 -45 -125 -56 -216 -56 -476 l0 -239 1675 0 1675 0 0 498 0 498 -92 39
c-91 38 -191 90 -376 194 -51 29 -141 76 -200 104 -97 45 -116 51 -198 56 -77
5 -97 10 -128 32 -40 28 -146 150 -189 217 -15 23 -31 42 -36 42 -5 0 -18 15
-29 34 -23 39 -82 82 -132 96 l-33 9 6 -48 c3 -27 20 -75 37 -108 l32 -60 -15
-84 c-20 -116 -89 -257 -157 -323 -27 -27 -50 -53 -50 -57 0 -5 -13 -23 -29
-41 -16 -19 -42 -60 -57 -93 -30 -62 -103 -145 -128 -145 -20 0 -24 18 -14 70
16 81 18 134 6 202 -10 64 -13 68 -54 94 -37 24 -44 34 -50 70 -4 29 -15 51
-35 68 -25 23 -29 33 -29 81 0 38 4 57 16 63 10 6 16 28 19 75 4 60 2 69 -20
93 -19 20 -22 30 -15 45 9 15 72 65 144 112 10 6 31 22 45 35 l26 24 -25 -7
c-14 -4 -34 -8 -45 -9 -27 -3 -57 -17 -73 -33 -16 -16 -32 -17 -32 -2 0 8 -12
9 -37 4 -21 -4 -45 -8 -53 -8 -8 0 -21 -4 -27 -9 -27 -21 -65 2 -128 77 -19
24 -24 26 -25 12 0 -14 -5 -17 -22 -11 -28 8 -24 4 -32 36 -5 23 -2 30 23 43
27 13 29 18 24 51 -6 36 -5 37 21 32 18 -4 30 0 36 11 9 14 13 12 31 -11 11
-16 27 -28 35 -28 21 0 17 12 -10 35 -19 16 -23 27 -19 51 4 24 12 33 41 44
26 10 32 15 20 18 -19 4 -24 17 -9 27 5 3 13 1 16 -5 5 -8 11 -7 21 1 11 9 21
9 40 0 14 -6 34 -11 44 -11 21 0 100 70 100 88 0 5 14 15 30 22 24 10 28 15
19 27 -7 7 -20 11 -29 8 -10 -3 -45 10 -81 30 -91 50 -88 49 -114 35 -28 -15
-55 0 -55 30 0 10 -7 20 -15 24 -22 8 -18 36 4 36 11 0 23 -9 26 -21 5 -15 12
-19 28 -15 12 3 26 6 32 6 5 0 -7 11 -27 25 -24 17 -51 25 -78 25 -30 0 -45 6
-62 25 -22 26 -48 33 -48 14 0 -20 -23 -3 -25 19 -1 12 -10 30 -19 41 -16 17
-16 25 -6 58 7 21 17 43 22 50 5 7 7 21 3 33 -4 11 -4 34 0 51 5 24 10 28 20
19 8 -6 11 -18 8 -27 -6 -16 15 -35 29 -27 4 3 8 20 8 37 0 24 -7 37 -30 52
-17 11 -30 29 -30 40 0 12 -6 27 -12 33 -10 10 -10 17 0 32 20 33 15 43 -18
36 -23 -4 -44 2 -85 24 -47 26 -58 28 -76 17 -18 -11 -23 -8 -48 23 -25 30
-27 37 -16 55 22 35 26 73 11 109 -25 60 -23 78 13 114 20 20 43 32 59 32 30
0 70 19 42 20 -13 0 -13 2 -1 9 8 5 19 7 25 5 6 -2 30 13 53 35 66 60 87 66
279 76 50 3 113 0 140 -6 27 -6 64 -13 82 -16 23 -4 51 -22 86 -58 60 -60 97
-128 100 -184 1 -22 7 -45 14 -53 8 -10 8 -18 1 -25 -15 -15 -2 -54 37 -115
42 -64 68 -151 85 -276 11 -83 14 -91 28 -79 9 7 28 18 42 24 31 14 31 11 19
223 -5 85 -19 202 -31 260 -31 153 -37 196 -39 285 -2 44 -5 92 -9 108 -8 37
-67 109 -116 142 -22 16 -53 44 -68 63 -28 36 -81 62 -128 62 -14 0 -34 9 -44
20 -27 30 -46 32 -109 10 -64 -22 -78 -19 -130 29 -19 18 -30 22 -33 14 -3 -7
-9 -13 -14 -13 -6 0 -7 5 -4 10 10 16 -39 11 -53 -5z m-244 -1138 c2 -9 -3
-17 -10 -17 -8 0 -14 9 -15 21 -2 24 20 20 25 -4z m-152 -178 c4 -7 21 -9 45
-5 37 6 39 5 39 -21 0 -16 -7 -41 -15 -57 -27 -51 -14 -136 20 -136 21 0 19
-23 -6 -65 -29 -49 -27 -107 5 -154 27 -39 33 -75 15 -86 -27 -17 -70 80 -74
168 -3 66 -13 96 -22 70 -7 -20 -22 -16 -48 13 -20 22 -25 38 -25 80 0 45 -4
55 -22 65 -20 11 -20 13 -5 24 21 15 22 25 3 25 -24 0 4 58 31 65 13 3 23 10
23 15 0 14 27 13 36 -1z m-166 -85 c0 -8 -5 -12 -10 -9 -6 4 -8 11 -5 16 9 14
15 11 15 -7z m-53 -26 c-3 -7 -5 -2 -5 12 0 14 2 19 5 13 2 -7 2 -19 0 -25z
m42 -111 c1 -5 -3 -5 -9 -2 -5 3 -10 16 -9 28 0 21 1 21 9 2 5 -11 9 -24 9
-28z m534 18 c7 -16 -8 -29 -23 -20 -15 9 -12 35 4 35 8 0 16 -7 19 -15z m275
-116 c59 -20 23 -46 -67 -48 -24 -1 -61 -6 -83 -13 -31 -9 -44 -9 -60 1 -15 9
-23 9 -34 0 -21 -17 -17 -29 9 -29 21 -1 21 -1 2 -12 -11 -6 -23 -16 -26 -21
-9 -14 -31 2 -25 18 6 16 -21 29 -29 15 -4 -6 -12 -10 -19 -10 -16 0 -59 40
-51 48 3 4 10 0 14 -7 6 -9 10 -6 15 13 4 17 13 26 26 26 11 0 28 4 38 9 56
29 215 35 290 10z m-108 -79 c0 -5 -4 -10 -10 -10 -5 0 -10 5 -10 10 0 6 5 10
10 10 6 0 10 -4 10 -10z m-67 -17 c-7 -2 -19 -2 -25 0 -7 3 -2 5 12 5 14 0 19
-2 13 -5z m-13 -23 c0 -5 -9 -10 -21 -10 -11 0 -17 5 -14 10 3 6 13 10 21 10
8 0 14 -4 14 -10z m130 -1192 c13 -13 33 -28 45 -33 11 -6 21 -21 21 -33 1
-13 6 -28 13 -35 8 -8 7 -15 -3 -26 -17 -19 -10 -71 10 -71 17 0 8 -27 -19
-57 -11 -13 -18 -26 -15 -29 9 -8 -211 -224 -228 -224 -7 0 -15 8 -18 18 -2 9
-14 49 -25 87 -11 39 -27 102 -35 140 -9 39 -18 80 -22 93 -5 16 -2 22 9 22 8
0 21 7 28 16 11 13 26 15 76 11 l63 -5 0 68 c0 43 4 70 11 72 34 11 67 6 89
-14z"/>
<path d="M1632 3088 c3 -7 13 -15 24 -16 10 -2 31 -16 46 -30 31 -29 46 -25
26 7 -21 34 -105 68 -96 39z"/>
<path d="M1400 3069 c-100 -19 -155 -60 -96 -71 31 -6 266 33 266 44 0 4 -7 8
-15 8 -8 0 -15 7 -15 16 0 12 -11 15 -52 13 -29 -2 -69 -6 -88 -10z"/>
<path d="M1370 2937 c-32 -16 -42 -77 -13 -77 10 0 29 8 43 17 17 12 25 13 28
5 9 -29 35 -43 66 -36 17 3 34 12 38 18 25 38 25 38 48 26 13 -7 19 -17 16
-26 -5 -12 1 -15 26 -12 95 9 -30 81 -144 82 -38 1 -68 4 -68 9 0 10 -11 9
-40 -6z m150 -37 c0 -5 -2 -10 -4 -10 -3 0 -8 5 -11 10 -3 6 -1 10 4 10 6 0
11 -4 11 -10z"/>
<path d="M1390 2830 c0 -21 40 -38 59 -25 19 11 12 25 -14 25 -14 0 -25 5 -25
10 0 6 -4 10 -10 10 -5 0 -10 -9 -10 -20z"/>
<path d="M2031 2716 c-10 -12 -8 -17 11 -27 36 -19 48 -41 47 -84 -2 -84 1
-125 10 -125 13 0 31 82 31 145 0 46 -4 60 -25 80 -27 28 -57 32 -74 11z"/>
<path d="M1269 2690 c25 -22 51 -26 51 -10 0 11 -42 30 -63 30 -7 -1 -1 -10
12 -20z"/>
<path d="M1960 2597 c0 -8 9 -22 20 -32 19 -18 20 -17 20 1 0 11 -9 25 -20 32
-16 10 -20 10 -20 -1z"/>
<path d="M1253 2588 c-13 -6 -23 -19 -23 -28 0 -14 8 -16 55 -12 37 3 55 1 55
-7 0 -17 27 -13 34 5 9 22 9 22 -24 39 -33 17 -65 18 -97 3z"/>
<path d="M1560 2451 c0 -5 5 -13 10 -16 6 -3 10 -2 10 4 0 5 -4 13 -10 16 -5
3 -10 2 -10 -4z"/>
</g>
</svg>
